<svg width="47" height="80" viewBox="0 0 47 80" fill="none" xmlns="http://www.w3.org/2000/svg">
<path d="M40.3679 42.35C43.6689 42.35 46.3449 45.027 46.3449 48.329V78.163C46.3449 80.51 42.8269 80.51 42.8269 78.163V48.329C42.8269 46.971 41.7249 45.87 40.3679 45.87C38.0219 45.87 38.0219 42.35 40.3679 42.35ZM24.0709 6.088C24.0709 9.45 21.3439 12.176 17.9819 12.176C14.6199 12.176 11.8949 9.45 11.8949 6.088C11.8949 2.726 14.6199 0 17.9819 0C21.3439 0 24.0709 2.726 24.0709 6.088ZM22.5959 38.348L24.9879 59.598C24.9879 59.598 25.1699 61.028 25.1699 62.517L25.1659 76.455C25.1639 81.051 18.2699 81.048 18.2709 76.453L18.2769 61.602C18.2769 61.602 17.0479 50.72 17.0469 50.704C17.0059 50.318 16.5429 50.324 16.5169 50.7L15.3989 60.933C15.2599 62.098 15.1909 62.497 14.8819 63.77C14.7249 64.446 11.5879 77.232 11.5879 77.232C10.4949 81.696 3.79988 80.057 4.89288 75.593L8.45288 61.043L10.7289 38.367L10.5079 26.235L7.38688 30.421L5.03388 42.73C4.30288 46.464 -0.623121 45.211 0.065879 41.886C1.19788 36.43 1.63788 33.316 1.99988 31.206C2.49488 28.316 2.84088 27.309 4.61088 24.742C6.46688 22.154 8.98688 18.648 11.2369 15.521C11.9299 14.556 12.9819 13.801 14.2009 13.801H19.0719C20.5089 13.801 21.8069 14.78 22.3169 16.083L29.6189 32.638L36.6869 38.462C39.8899 40.919 36.3429 44.909 33.6069 42.738C28.9659 39.059 27.2679 38.101 26.1249 36.661C25.1379 35.421 24.5049 33.899 22.5449 30.241C22.5449 30.241 22.5829 38.219 22.5959 38.348Z" fill="#F2B11A"/>
</svg>
