<svg id="Layer_1" data-name="Layer 1" xmlns="http://www.w3.org/2000/svg" viewBox="0 0 537.91 437.47"><defs><style>.cls-1{fill:#e6e6e5;}.cls-1,.cls-3,.cls-4,.cls-5,.cls-6,.cls-7,.cls-8,.cls-9{fill-rule:evenodd;}.cls-2{fill:#818181;}.cls-3{fill:#1a1a1a;}.cls-4{fill:#243e90;}.cls-5{fill:#f0b11d;}.cls-10,.cls-6{fill:#989898;}.cls-7{fill:#ccc;}.cls-8{fill:#f3f3f3;}.cls-9{fill:#4e4e4e;}</style></defs><title>2020-02-14 image-only final</title><path class="cls-1" d="M208.64,172.66l-7.59,4.7-.56,9L185.73,412.78c1.52-.28,3.17-.55,4.69-.83a76,76,0,0,1,8-1,113.21,113.21,0,0,1,34,2.49,6.23,6.23,0,0,1,1.52.27,291.43,291.43,0,0,1,28.29,8.42c3,1,6.21,2.07,9.24,3,3.87,1.38,7.59,2.48,11.46,3.72h1.65l-.27-2.89L268.11,177.36l-7.45-4.7-26.77-1.51-25.25,1.51Z" transform="translate(-1.5 -47.36)"/><path class="cls-1" d="M233.89,412.36v1.38a291.43,291.43,0,0,1,28.29,8.42c3,1,6.21,2.07,9.24,3l-.13-4.69L260.66,172.66l-26.77-1.51Z" transform="translate(-1.5 -47.36)"/><polygon class="cls-2" points="232.39 283.85 266.04 285.79 259.16 125.3 232.39 123.78 232.39 283.85"/><path class="cls-1" d="M257.9,163.56V139.41a63.21,63.21,0,0,0-23.32-4.28,65.42,65.42,0,0,0-23.18,4.28v27l21.39-2.07,1.1-.13,1.1.13,22.91,2.21Z" transform="translate(-1.5 -47.36)"/><path class="cls-3" d="M274.74,153.62l-10.77-4v17.94l10.77,4Zm-58.51-18.08V108.08c-1.94.55-3.73,1.24-5.66,1.8v27.46c1.93-.69,3.72-1.24,5.66-1.8Zm-7.18,2.35V110h0c.28-16.42,9.94-23.73,21.53-25A2,2,0,0,0,232.51,83h0a2,2,0,0,0-.83-1.66A4.22,4.22,0,0,1,230.16,78a4.51,4.51,0,0,1,4-4.56V62.68h1V73.44a4.62,4.62,0,0,1,4,4.56,4.33,4.33,0,0,1-1.65,3.31,2.26,2.26,0,0,0-.69,1.66h0A2,2,0,0,0,238.58,85c11.73,1.24,21.39,8.55,21.53,25h0v27.88l1.38.55-1.38,1.38v6.76l2.9.28.13.14h.14l13.66,5.1v20.29l-8.83,5-7.45-4.7-26.77-1.51-25.25,1.51-7.59,4.7-8.7-5V152.1l.69-.27L204.63,147h.14l.14-.14,4.14-.41v-6.63l-1.24-1.24Zm49.54-.55V109.88c-1.79-.56-3.73-1.25-5.52-1.8v27.46a43.82,43.82,0,0,1,5.52,1.8Zm-7-2.21V107.81a38.84,38.84,0,0,0-5.52-1.25v27.33a38.79,38.79,0,0,1,5.52,1.24Zm-7-1.52V106.29c-1.94-.28-3.73-.42-5.66-.55v27.18c1.93.14,3.72.42,5.66.69Zm-7.18-.69V105.6h-5.52v27.32c1,0,1.79-.14,2.76-.14a17.33,17.33,0,0,1,2.76.14Zm-7,0V105.74c-1.79.13-3.72.27-5.52.55v27.32c1.8-.27,3.73-.55,5.52-.69Zm-7,1V106.56a40.88,40.88,0,0,0-5.65,1.25v27.32a40.83,40.83,0,0,1,5.65-1.24Zm4.14,5.38h14.49v5.52l16,1.66v-7a63.21,63.21,0,0,0-23.32-4.28,65.42,65.42,0,0,0-23.18,4.28v6.9l16-1.66Zm14.49,7.87v17.8l16,1.65V148.65ZM227.4,164.8V147l-16,1.52v17.93Zm32.71-15.87v17.94l1.65.14V149.07Zm-51.06,17.8V148.79l-2.9.28V167Zm-5.11-17-9.38,3.86v17.8l9.38-3.86Z" transform="translate(-1.5 -47.36)"/><path class="cls-4" d="M141.71,435.69C217.05,408.91,291,497,374.65,441.76c-113,16-136.48-60.58-232.94-6.07Z" transform="translate(-1.5 -47.36)"/><path class="cls-4" d="M94.51,460.25c75.35-26.77,149.45,61.27,233.08,5.93-113.16,16-136.48-60.44-233.08-5.93Z" transform="translate(-1.5 -47.36)"/><path class="cls-5" d="M19.17,100.08l173,20.84L1.5,71.24Zm395.77,77.83L277.77,132.78l261.64,49.13Zm-15.18-49.54-116.47-1.93,105-14.63Zm43.75-37.68L268.39,114.57,464.76,47.36ZM21.24,177.22l163.94-45.68L41.25,144.1Z" transform="translate(-1.5 -47.36)"/><path class="cls-6" d="M208,186.6l.69-13.94-7.59,4.7-.56,9L185.73,412.78c1.52-.28,3.17-.55,4.69-.83a76,76,0,0,1,8-1Z" transform="translate(-1.5 -47.36)"/><path class="cls-7" d="M208.64,172.66,208,186.6,198.42,411a113.21,113.21,0,0,1,34,2.49,6.23,6.23,0,0,1,1.52.27V171.15Z" transform="translate(-1.5 -47.36)"/><path class="cls-8" d="M260.94,181.63,271.42,425.2c3.87,1.38,7.59,2.48,11.46,3.72h1.65l-.27-2.89L268.11,177.36l-7.45-4.7Z" transform="translate(-1.5 -47.36)"/><polygon class="cls-3" points="207.13 125.3 200.29 286.02 189.26 287.25 199.54 129.99 207.13 125.3"/><polygon class="cls-9" points="200.29 286.02 232.39 283.85 232.39 123.78 207.13 125.3 200.29 286.02"/><polygon class="cls-10" points="266.04 285.79 276.84 287.51 266.61 129.99 259.16 125.3 266.04 285.79"/><polygon class="cls-3" points="241.91 139.95 249.5 139.95 250.05 156.92 242.46 156.92 241.91 139.95"/><polygon class="cls-3" points="243.01 194.24 250.46 194.24 251.02 211.22 243.56 211.22 243.01 194.24"/></svg>