<svg id="Layer_1" data-name="Layer 1" xmlns="http://www.w3.org/2000/svg" viewBox="0 0 1088.11 417.3"><defs><style>.cls-1{fill:#fff;}.cls-1,.cls-3,.cls-4,.cls-5,.cls-6,.cls-7,.cls-8,.cls-9{fill-rule:evenodd;}.cls-2{fill:#fff;}.cls-3{fill:#fff;}.cls-4{fill:#fff;}.cls-5{fill:#fff;}.cls-10,.cls-6{fill:#fff;}.cls-7{fill:#fff;}.cls-8{fill:#f3f3f3;}.cls-9{fill:#fff;}.cls-11{fill:#fff;}.cls-12{fill:#231f20;}</style></defs><title>2020-02-14 landscape final</title><path class="cls-1" d="M199,135.09l-7.24,4.48-.53,8.56-14.08,216c1.45-.27,3-.53,4.47-.79a72.48,72.48,0,0,1,7.64-.93,108,108,0,0,1,32.38,2.37,5.7,5.7,0,0,1,1.45.27,273.75,273.75,0,0,1,27,8c2.9.92,5.93,2,8.82,2.89,3.69,1.32,7.24,2.37,10.93,3.56h1.58l-.26-2.77L255.7,139.57l-7.1-4.48-25.54-1.44L199,135.09Z" transform="translate(-1.39 -15.57)"/><path class="cls-1" d="M223.06,363.74v1.32a273.75,273.75,0,0,1,27,8c2.9.92,5.93,2,8.82,2.89l-.13-4.47L248.6,135.09l-25.54-1.44Z" transform="translate(-1.39 -15.57)"/><polygon class="cls-2" points="221.67 270.76 253.77 272.61 247.21 119.52 221.67 118.07 221.67 270.76"/><path class="cls-1" d="M246,126.41v-23a60.47,60.47,0,0,0-22.24-4.08,62.63,62.63,0,0,0-22.12,4.08v25.8l20.41-2,1.05-.13,1.05.13L246,129.3Z" transform="translate(-1.39 -15.57)"/><path class="cls-3" d="M262,116.93l-10.26-3.82v17.11L262,134ZM206.21,99.69V73.49c-1.84.53-3.55,1.19-5.4,1.71v26.2c1.85-.66,3.56-1.19,5.4-1.71Zm-6.84,2.23V75.33h0c.26-15.66,9.47-22.64,20.53-23.82a1.91,1.91,0,0,0,1.84-2h0A1.89,1.89,0,0,0,221,48a4,4,0,0,1-1.44-3.16,4.29,4.29,0,0,1,3.81-4.34V30.18h.92V40.45a4.4,4.4,0,0,1,3.82,4.34A4.12,4.12,0,0,1,226.48,48a2.23,2.23,0,0,0-.66,1.58h0a1.9,1.9,0,0,0,1.71,2c11.19,1.18,20.41,8.16,20.54,23.82h0v26.59l1.32.53-1.32,1.32v6.45l2.76.26.14.13h.13l13,4.87v19.35l-8.43,4.74-7.1-4.48-25.54-1.44L199,135.09l-7.24,4.48-8.29-4.74V115.48l.66-.26,11.05-4.61h.13l.14-.13,4-.4v-6.31l-1.19-1.19Zm47.25-.52V75.2c-1.71-.52-3.55-1.18-5.26-1.71v26.2a39.76,39.76,0,0,1,5.26,1.71Zm-6.71-2.11V73.23A38.41,38.41,0,0,0,234.64,72V98.11a37,37,0,0,1,5.27,1.18Zm-6.72-1.45V71.78c-1.84-.26-3.55-.4-5.39-.53V97.18c1.84.14,3.55.4,5.39.66Zm-6.84-.66V71.12h-5.27V97.18c.93,0,1.72-.13,2.64-.13a17,17,0,0,1,2.63.13Zm-6.71,0V71.25c-1.71.13-3.56.27-5.27.53V97.84c1.71-.26,3.56-.52,5.27-.66Zm-6.72.93V72a40,40,0,0,0-5.39,1.19V99.29a38.52,38.52,0,0,1,5.39-1.18Zm4,5.13h13.82v5.26L246,110.08v-6.71a60.47,60.47,0,0,0-22.24-4.08,62.63,62.63,0,0,0-22.12,4.08V110l15.27-1.58Zm13.82,7.5v17L246,129.3V112.19Zm-13.82,16.85v-17l-15.27,1.45v17.11Zm31.2-15.14v17.12l1.58.13V112.59Zm-48.7,17V112.32l-2.77.27V129.7Zm-4.88-16.19-9,3.69v17l9-3.69Z" transform="translate(-1.39 -15.57)"/><path class="cls-4" d="M135.13,384.9C207,358.18,277.56,446.05,357.32,391c-107.8,16-130.18-60.46-222.19-6.06Z" transform="translate(-1.39 -15.57)"/><path class="cls-4" d="M90.11,409.42c71.87-25.54,142.56,58.44,222.33,5.66-107.94,15.27-130.19-57.66-222.33-5.66Z" transform="translate(-1.39 -15.57)"/><polygon class="cls-5" points="16.85 50.28 181.92 70.16 0 22.77 16.85 50.28"/><polygon class="cls-5" points="394.37 124.52 263.53 81.48 513.1 128.34 394.37 124.52"/><polygon class="cls-5" points="379.89 77.27 268.79 75.42 368.97 61.47 379.89 77.27"/><polygon class="cls-5" points="421.62 41.33 254.58 64.11 441.89 0 421.62 41.33"/><polygon class="cls-5" points="18.82 123.87 175.2 80.3 37.91 92.27 18.82 123.87"/><path class="cls-6" d="M198.31,148.39l.66-13.3-7.24,4.48-.53,8.56-14.08,216c1.45-.27,3-.53,4.47-.79a72.48,72.48,0,0,1,7.64-.93Z" transform="translate(-1.39 -15.57)"/><path class="cls-7" d="M199,135.09l-.66,13.3-9.08,214a108,108,0,0,1,32.38,2.37,5.7,5.7,0,0,1,1.45.27V133.65Z" transform="translate(-1.39 -15.57)"/><path class="cls-8" d="M248.86,143.65l10,232.33c3.69,1.32,7.24,2.37,10.93,3.56h1.58l-.26-2.77L255.7,139.57l-7.1-4.48Z" transform="translate(-1.39 -15.57)"/><polygon class="cls-3" points="197.58 119.52 191.06 272.83 180.53 274.01 190.34 124 197.58 119.52"/><polygon class="cls-9" points="191.06 272.83 221.67 270.76 221.67 118.07 197.58 119.52 191.06 272.83"/><polygon class="cls-10" points="253.77 272.61 264.07 274.26 254.31 124 247.21 119.52 253.77 272.61"/><polygon class="cls-3" points="230.75 133.49 237.99 133.49 238.52 149.69 231.28 149.69 230.75 133.49"/><polygon class="cls-3" points="231.81 185.29 238.91 185.29 239.44 201.48 232.33 201.48 231.81 185.29"/><polygon class="cls-11" points="367.14 256.95 367.14 248.77 375.59 247.18 375.59 189.41 367.14 187.82 367.14 179.58 375.59 179.58 388.98 179.58 398.07 179.58 398.07 187.82 388.98 189.41 388.98 246.7 413.16 246.7 414.06 235.01 424.32 235.01 424.32 256.95 367.14 256.95"/><polygon class="cls-11" points="431.12 256.95 431.12 248.77 439.57 247.18 439.57 189.41 431.12 187.82 431.12 179.58 461.36 179.58 461.36 187.82 452.96 189.41 452.96 247.18 461.36 248.77 461.36 256.95 431.12 256.95"/><path class="cls-11" d="M505.37,273.64q-11.16,0-19.18-4.86a32.22,32.22,0,0,1-12.33-13.5,44.25,44.25,0,0,1-4.31-20V233.2a46.19,46.19,0,0,1,4.28-20.43,33.32,33.32,0,0,1,12-13.76,32.38,32.38,0,0,1,18-5,50.88,50.88,0,0,1,15.51,2.2,35.63,35.63,0,0,1,11.91,6.3v16.53H520.94l-1.7-10.74a17.76,17.76,0,0,0-6-2.76,31.49,31.49,0,0,0-8.4-1,19.06,19.06,0,0,0-11.5,3.59,23.21,23.21,0,0,0-7.71,10,37.9,37.9,0,0,0-2.74,15v2.17A37.9,37.9,0,0,0,485.57,250a20.42,20.42,0,0,0,20.07,13.18,34.82,34.82,0,0,0,8.15-.85,26.9,26.9,0,0,0,6-2.12V245l-12.64-.75v-9.51h26v30.72A39.2,39.2,0,0,1,522,271.25,50.45,50.45,0,0,1,505.37,273.64Z" transform="translate(-1.39 -15.57)"/><polygon class="cls-11" points="540.81 256.95 540.81 248.77 549.26 247.18 549.26 189.41 540.81 187.82 540.81 179.58 571.1 179.58 571.1 187.82 562.65 189.41 562.65 213.54 596.5 213.54 596.5 189.41 588.05 187.82 588.05 179.58 596.5 179.58 609.84 179.58 618.29 179.58 618.29 187.82 609.84 189.41 609.84 247.18 618.29 248.77 618.29 256.95 588.05 256.95 588.05 248.77 596.5 247.18 596.5 223.95 562.65 223.95 562.65 247.18 571.1 248.77 571.1 256.95 540.81 256.95"/><polygon class="cls-11" points="643.69 256.95 643.69 248.77 652.14 247.18 652.14 189.84 636.57 189.84 635.4 199.72 625.35 199.72 625.35 179.58 692.37 179.58 692.37 199.72 682.27 199.72 681.1 189.84 665.53 189.84 665.53 247.18 673.98 248.77 673.98 256.95 643.69 256.95"/><polygon class="cls-11" points="699.49 256.95 699.49 248.77 707.93 247.18 707.93 189.41 699.49 187.82 699.49 179.58 729.78 179.58 729.78 187.82 721.33 189.41 721.33 213.54 755.18 213.54 755.18 189.41 746.73 187.82 746.73 179.58 755.18 179.58 768.52 179.58 776.97 179.58 776.97 187.82 768.52 189.41 768.52 247.18 776.97 248.77 776.97 256.95 746.73 256.95 746.73 248.77 755.18 247.18 755.18 223.95 721.33 223.95 721.33 247.18 729.78 248.77 729.78 256.95 699.49 256.95"/><path class="cls-11" d="M850.79,217.58A37.23,37.23,0,0,0,844,205.12a30.21,30.21,0,0,0-10.68-8.19A33.47,33.47,0,0,0,819.17,194a32.45,32.45,0,0,0-13.87,2.89,30.59,30.59,0,0,0-10.66,8.19,37.74,37.74,0,0,0-6.83,12.46,49.41,49.41,0,0,0-2.39,15.67v1.17a49.57,49.57,0,0,0,2.39,15.73,37.45,37.45,0,0,0,6.83,12.44,30.74,30.74,0,0,0,10.66,8.16,32.55,32.55,0,0,0,13.92,2.89,33.37,33.37,0,0,0,14.14-2.89A30.36,30.36,0,0,0,844,262.59a36.94,36.94,0,0,0,6.75-12.44,50.75,50.75,0,0,0,2.33-15.73v-1.17A50.58,50.58,0,0,0,850.79,217.58Zm-11.06,16.84a46.23,46.23,0,0,1-2.2,15,21.06,21.06,0,0,1-6.75,10A18.09,18.09,0,0,1,819.22,263,17.59,17.59,0,0,1,808,259.43a21.61,21.61,0,0,1-6.83-10.05,44.85,44.85,0,0,1-2.28-15v-1.27a44,44,0,0,1,2.28-14.83,21.94,21.94,0,0,1,6.8-10,17.4,17.4,0,0,1,11.22-3.61,18,18,0,0,1,11.56,3.61,21.51,21.51,0,0,1,6.77,10,44.83,44.83,0,0,1,2.23,14.83Z" transform="translate(-1.39 -15.57)"/><path class="cls-11" d="M897.34,273.64A35.52,35.52,0,0,1,882,270.48a24.35,24.35,0,0,1-10.44-9.11,26.48,26.48,0,0,1-3.75-14.4V205l-8.45-1.59v-8.24h30.24v8.24L881.13,205v42a18.29,18.29,0,0,0,2,9,12.81,12.81,0,0,0,5.69,5.45,19.16,19.16,0,0,0,8.55,1.81,19.73,19.73,0,0,0,8.74-1.81,13,13,0,0,0,5.74-5.42,18.06,18.06,0,0,0,2-9V205l-8.45-1.59v-8.24h30.24v8.24l-8.4,1.59v42a26.64,26.64,0,0,1-3.75,14.5,23.78,23.78,0,0,1-10.49,9.06A37.17,37.17,0,0,1,897.34,273.64Z" transform="translate(-1.39 -15.57)"/><path class="cls-11" d="M972,273.64a52.87,52.87,0,0,1-14.72-2,43.74,43.74,0,0,1-13.23-6.54v-17.8h10.36l1.7,11.53a22.9,22.9,0,0,0,6.94,3.24,31.14,31.14,0,0,0,9,1.22,20.63,20.63,0,0,0,8-1.35,11,11,0,0,0,4.91-3.8,9.91,9.91,0,0,0,1.7-5.79,10.1,10.1,0,0,0-1.49-5.48,13,13,0,0,0-4.94-4.28,44.6,44.6,0,0,0-9.35-3.48,66,66,0,0,1-14.48-5.52,24.11,24.11,0,0,1-8.77-7.66,19.92,19.92,0,0,1,.42-21.52,22.85,22.85,0,0,1,9.38-7.54,33.39,33.39,0,0,1,13.87-2.82,44,44,0,0,1,15.23,2.23,36.51,36.51,0,0,1,11.18,6.11v16.64H987.46l-1.91-10.84a20,20,0,0,0-5.66-2.63,27.49,27.49,0,0,0-8.21-1.09,18,18,0,0,0-7.12,1.32,11.38,11.38,0,0,0-4.83,3.75,9.55,9.55,0,0,0-1.76,5.77,8.57,8.57,0,0,0,1.54,5.1,13.52,13.52,0,0,0,5.16,4,63.18,63.18,0,0,0,9.78,3.58q12.59,3.36,19.07,9.25a19.45,19.45,0,0,1,6.49,15,18.67,18.67,0,0,1-3.48,11.24,22.62,22.62,0,0,1-9.78,7.47A37.79,37.79,0,0,1,972,273.64Z" transform="translate(-1.39 -15.57)"/><polygon class="cls-11" points="1005.95 256.95 1005.95 248.77 1014.4 247.18 1014.4 189.41 1005.95 187.82 1005.95 179.58 1064.88 179.58 1064.88 199.51 1054.47 199.51 1053.56 189.89 1027.79 189.89 1027.79 211.78 1054.95 211.78 1054.95 222.15 1027.79 222.15 1027.79 246.75 1055 246.75 1055.9 236.92 1066.21 236.92 1066.21 256.95 1005.95 256.95"/><path class="cls-11" d="M565.48,330.37v-2.23l2.89-.5V307.32l-2.89-.49v-2.25H573l8.31,19.57h.1l8-19.57h7.77v2.25l-2.89.49v20.32l2.89.5v2.23H588v-2.23l3-.5v-18.3H591l-8.38,20.12h-2.32l-8.67-20.09-.08,0,.12,10.79v7.47l3.12.5v2.23Z" transform="translate(-1.39 -15.57)"/><path class="cls-11" d="M600.36,330.37v-2.23l2.89-.5V307.32l-2.89-.49v-2.25h19.1v6.2h-2.8l-.39-3.51h-9.53v8.4h9.51v2.74h-9.51v9.34h10.1l.39-3.56H620v6.18Z" transform="translate(-1.39 -15.57)"/><path class="cls-11" d="M643.51,310.69a10.92,10.92,0,0,0-4-4.48,10.76,10.76,0,0,0-6-1.63H623.5v2.25l2.88.49v20.32l-2.88.5v2.23h10.27a10.43,10.43,0,0,0,5.92-1.66,10.88,10.88,0,0,0,3.88-4.51,14.94,14.94,0,0,0,1.36-6.44v-.55A14.38,14.38,0,0,0,643.51,310.69Zm-2.07,7.07a12.69,12.69,0,0,1-1,5,8.57,8.57,0,0,1-2.7,3.57,6.68,6.68,0,0,1-4.2,1.34h-3.72V307.32h3.72a6.9,6.9,0,0,1,4.2,1.3,8.25,8.25,0,0,1,2.7,3.51,12.83,12.83,0,0,1,1,5Z" transform="translate(-1.39 -15.57)"/><path class="cls-11" d="M647.52,330.37v-2.23l2.88-.5V307.32l-2.88-.49v-2.25h9.26v2.25l-2.89.49v20.32l2.89.5v2.23Z" transform="translate(-1.39 -15.57)"/><path class="cls-11" d="M671.3,330.74a11.6,11.6,0,0,1-6.47-1.7,10.49,10.49,0,0,1-3.9-4.66,16.63,16.63,0,0,1-1.3-6.71v-.37a15.85,15.85,0,0,1,1.37-6.74,10.89,10.89,0,0,1,3.91-4.65,10.67,10.67,0,0,1,6.09-1.7,12.85,12.85,0,0,1,4.57.78,11,11,0,0,1,3.44,2v5.56h-2.78l-.37-4.07a5.33,5.33,0,0,0-1.3-.75,8.42,8.42,0,0,0-1.63-.46,11.81,11.81,0,0,0-1.94-.16,7,7,0,0,0-4.29,1.31A7.94,7.94,0,0,0,664,312a14.39,14.39,0,0,0-.9,5.28v.41a14.26,14.26,0,0,0,1,5.53,7.57,7.57,0,0,0,2.82,3.5,8,8,0,0,0,4.51,1.21,9.92,9.92,0,0,0,2.43-.3,7,7,0,0,0,2-.78l.39-3.6h2.73v5.6a12.34,12.34,0,0,1-3.47,1.41A17.5,17.5,0,0,1,671.3,330.74Z" transform="translate(-1.39 -15.57)"/><path class="cls-11" d="M705.08,327.87l-8.85-23.29h-3l-9,23.29-1.91.27v2.23h7.38v-2.23l-2-.34,1.76-4.75h10.32l1.7,4.75-1.94.34v2.23H707v-2.23Zm-14.5-7.74,3.86-10.49.21-.58h.11l.21.58,3.79,10.49Z" transform="translate(-1.39 -15.57)"/><path class="cls-11" d="M709.65,330.37v-2.23l2.89-.5V307.32l-2.89-.49v-2.25h9.27v2.25l-2.89.49v20.37h9.12l.41-4.07h2.68v6.75Z" transform="translate(-1.39 -15.57)"/><path class="cls-11" d="M746.46,330.37v-2.23l2.89-.5V307.22h-5.84L743,310.8h-2.62v-6.22H761.8v6.22h-2.58l-.53-3.58h-5.85v20.42l2.89.5v2.23Z" transform="translate(-1.39 -15.57)"/><path class="cls-11" d="M771.39,318.86l5.47-.1-.57-1.27,3.49,0,.41.87a8.1,8.1,0,0,0,1.26-.42,6.17,6.17,0,0,0,2.79-2.33,7,7,0,0,0,1-3.81,7.21,7.21,0,0,0-1-3.9,6.33,6.33,0,0,0-3-2.43,12,12,0,0,0-4.75-.84H765v2.23l2.89.49v20.32l-2.89.5v2.23h9.26v-2.23l-2.88-.5Zm0-11.54h5.12a5.65,5.65,0,0,1,4,1.19,4.19,4.19,0,0,1,1.27,3.22A4,4,0,0,1,780.4,315a6.51,6.51,0,0,1-4.25,1.12h-4.76Z" transform="translate(-1.39 -15.57)"/><path class="cls-11" d="M812.13,327.87l-8.86-23.29h-3l-9,23.29-1.91.27v2.23h7.39v-2.23l-2-.34,1.75-4.75h10.33l1.7,4.75-2,.34v2.23H814v-2.23Zm-14.51-7.74,3.86-10.49.22-.58h.1l.21.58,3.79,10.49Z" transform="translate(-1.39 -15.57)"/><path class="cls-11" d="M816.73,330.37v-2.23l2.89-.5V307.32l-2.89-.49v-2.25h6.42l12.64,20.1.11,0V307.32l-3.17-.49v-2.25H842v2.25l-2.88.49v23.05h-3.19l-13-20.21-.1,0v17.45l3.17.5v2.23Z" transform="translate(-1.39 -15.57)"/><path class="cls-11" d="M854.2,330.74a15,15,0,0,1-4.54-.69,14.75,14.75,0,0,1-4.16-2.12v-5.51h2.71l.59,4.05a9.78,9.78,0,0,0,2.49,1.1,10.44,10.44,0,0,0,2.91.39,7.45,7.45,0,0,0,3-.54,4.34,4.34,0,0,0,1.89-1.5,4.16,4.16,0,0,0,.09-4.32,4.69,4.69,0,0,0-1.87-1.58,14.72,14.72,0,0,0-3.55-1.2,16.73,16.73,0,0,1-4.49-1.66,7.7,7.7,0,0,1-2.79-2.51,6.17,6.17,0,0,1-.94-3.39,6.31,6.31,0,0,1,1.07-3.62,7.31,7.31,0,0,1,3-2.51,10.14,10.14,0,0,1,4.47-.92,13,13,0,0,1,4.79.82,11.83,11.83,0,0,1,3.43,2v5.16h-2.71l-.59-3.69a6.86,6.86,0,0,0-2-1.06,8.88,8.88,0,0,0-2.94-.42,6.13,6.13,0,0,0-2.62.52,4.23,4.23,0,0,0-1.78,1.46,3.88,3.88,0,0,0-.63,2.21,3.34,3.34,0,0,0,.57,1.95,4.7,4.7,0,0,0,1.88,1.46,18.35,18.35,0,0,0,3.48,1.18,13.59,13.59,0,0,1,6.17,3,6.42,6.42,0,0,1,2.1,4.88,6.29,6.29,0,0,1-1.11,3.67,7.42,7.42,0,0,1-3.15,2.51A11.67,11.67,0,0,1,854.2,330.74Z" transform="translate(-1.39 -15.57)"/><path class="cls-11" d="M885.8,308.25a7,7,0,0,0-3-2.71,10.58,10.58,0,0,0-4.71-1H866.26v2.25l2.89.49v20.32l-2.89.5v2.23h9.27v-2.23l-2.89-.5V320h5.47a10.58,10.58,0,0,0,4.71-.95,7,7,0,0,0,3-2.69,7.93,7.93,0,0,0,1-4.08A7.84,7.84,0,0,0,885.8,308.25ZM882,315.89a5.1,5.1,0,0,1-3.93,1.41h-5.47v-10h5.47a5,5,0,0,1,3.93,1.44,5.17,5.17,0,0,1,1.3,3.58A5.06,5.06,0,0,1,882,315.89Z" transform="translate(-1.39 -15.57)"/><path class="cls-11" d="M910.24,312a12.34,12.34,0,0,0-2-4.16,9.15,9.15,0,0,0-3.36-2.71,10.74,10.74,0,0,0-4.64-1,10.3,10.3,0,0,0-4.48,1,9.64,9.64,0,0,0-3.38,2.71,12.66,12.66,0,0,0-2.12,4.16,17.9,17.9,0,0,0-.74,5.27v.37a18,18,0,0,0,.74,5.28,12.51,12.51,0,0,0,2.12,4.13,9.64,9.64,0,0,0,3.38,2.71,10.3,10.3,0,0,0,4.48.95,10.74,10.74,0,0,0,4.64-.95,9.15,9.15,0,0,0,3.36-2.71,12.19,12.19,0,0,0,2-4.13,18.69,18.69,0,0,0,.7-5.28v-.37A18.62,18.62,0,0,0,910.24,312Zm-2.81,5.64a17.12,17.12,0,0,1-.75,5.32,7.28,7.28,0,0,1-2.33,3.57,6.41,6.41,0,0,1-4.15,1.28,6.07,6.07,0,0,1-3.93-1.29,7.85,7.85,0,0,1-2.45-3.58,15.56,15.56,0,0,1-.83-5.3v-.41a15.46,15.46,0,0,1,.83-5.27,7.93,7.93,0,0,1,2.45-3.57,6.07,6.07,0,0,1,3.93-1.29,6.41,6.41,0,0,1,4.13,1.28,7.56,7.56,0,0,1,2.35,3.56,16.93,16.93,0,0,1,.75,5.29Z" transform="translate(-1.39 -15.57)"/><path class="cls-11" d="M932.81,307.87a6.33,6.33,0,0,0-2.95-2.43,12,12,0,0,0-4.75-.84h-11.5v2.23l2.89.49v20.32l-2.89.5v2.23h9.26v-2.23l-2.88-.5v-8.78l5.77-.11a11.53,11.53,0,0,0,4.29-.84,6.17,6.17,0,0,0,2.79-2.33,7,7,0,0,0,1-3.81A7.21,7.21,0,0,0,932.81,307.87ZM929,315a6.51,6.51,0,0,1-4.25,1.12H920v-8.79h5.12a5.65,5.65,0,0,1,3.95,1.19,4.19,4.19,0,0,1,1.27,3.22A4,4,0,0,1,929,315Z" transform="translate(-1.39 -15.57)"/><polygon class="cls-11" points="929.24 314.8 923.5 301.92 926.99 301.88 931.76 312.19 933.55 312.51 933.55 314.8 929.24 314.8"/><path class="cls-11" d="M943.09,330.37v-2.23l2.88-.5V307.22h-5.84l-.52,3.58H937v-6.22h21.44v6.22h-2.59l-.53-3.58h-5.85v20.42l2.89.5v2.23Z" transform="translate(-1.39 -15.57)"/><path class="cls-11" d="M980,327.87l-8.86-23.29h-3l-9,23.29-1.91.27v2.23h7.38v-2.23l-2-.34,1.76-4.75H974.7l1.71,4.75-1.95.34v2.23h7.4v-2.23Zm-14.51-7.74,3.86-10.49.21-.58h.11l.21.58,3.79,10.49Z" transform="translate(-1.39 -15.57)"/><path class="cls-11" d="M986.64,330.37v-2.23l2.89-.5V307.22h-5.84l-.52,3.58h-2.62v-6.22H1002v6.22H999.4l-.53-3.58H993v20.42l2.89.5v2.23Z" transform="translate(-1.39 -15.57)"/><path class="cls-11" d="M1005.19,330.37v-2.23l2.89-.5V307.32l-2.89-.49v-2.25h9.26v2.25l-2.88.49v20.32l2.88.5v2.23Z" transform="translate(-1.39 -15.57)"/><path class="cls-11" d="M1037.89,312a12.18,12.18,0,0,0-2.05-4.16,9.2,9.2,0,0,0-3.35-2.71,10.8,10.8,0,0,0-4.64-1,10.34,10.34,0,0,0-4.49,1,9.61,9.61,0,0,0-3.37,2.71,12.49,12.49,0,0,0-2.13,4.16,17.9,17.9,0,0,0-.73,5.27v.37a18,18,0,0,0,.73,5.28,12.34,12.34,0,0,0,2.13,4.13,9.61,9.61,0,0,0,3.37,2.71,10.34,10.34,0,0,0,4.49.95,10.8,10.8,0,0,0,4.64-.95,9.2,9.2,0,0,0,3.35-2.71,12,12,0,0,0,2.05-4.13,19.06,19.06,0,0,0,.69-5.28v-.37A19,19,0,0,0,1037.89,312Zm-2.82,5.64a17.44,17.44,0,0,1-.74,5.32,7.35,7.35,0,0,1-2.33,3.57,6.43,6.43,0,0,1-4.15,1.28,6.12,6.12,0,0,1-3.94-1.29,7.84,7.84,0,0,1-2.44-3.58,15.32,15.32,0,0,1-.83-5.3v-.41a15.22,15.22,0,0,1,.83-5.27,7.91,7.91,0,0,1,2.44-3.57,6.12,6.12,0,0,1,3.94-1.29,6.4,6.4,0,0,1,4.12,1.28,7.42,7.42,0,0,1,2.35,3.56,16.93,16.93,0,0,1,.75,5.29Z" transform="translate(-1.39 -15.57)"/><path class="cls-11" d="M1041.29,330.37v-2.23l2.89-.5V307.32l-2.89-.49v-2.25h6.41l12.65,20.1.11,0V307.32l-3.17-.49v-2.25h9.26v2.25l-2.89.49v23.05h-3.19l-13-20.21-.11,0v17.45l3.17.5v2.23Z" transform="translate(-1.39 -15.57)"/><path class="cls-12" d="M1071,205.1v-.59l1.11-.09v-8.6h-2.79l-.09,1.52h-.67v-2.19h7.92v2.19h-.66l-.1-1.52h-2.79v8.6l1.12.09v.59Z" transform="translate(-1.39 -15.57)"/><path class="cls-12" d="M1077.66,205.1v-.59l1.12-.09v-8.58l-1.12-.09v-.6h2.22l3.68,8.53h0l3.63-8.53h2.27v.6l-1.11.09v8.58l1.11.09v.59h-3v-.59l1.14-.09v-8.07h0l-3.69,8.6h-.57l-3.73-8.57h0l0,3.7v4.34l1.16.09v.59Z" transform="translate(-1.39 -15.57)"/><polygon class="cls-11" points="781.24 314.8 775.5 301.92 778.99 301.88 783.76 312.19 785.55 312.51 785.55 314.8 781.24 314.8"/></svg>