<svg width="100" height="125" viewBox="0 0 100 125" fill="none" xmlns="http://www.w3.org/2000/svg">
<path d="M57.3939 50.7161C54.6729 50.7091 52.4669 48.5021 52.4529 45.7751C52.4679 43.0441 54.6739 40.8371 57.3939 40.8311C60.1279 40.8371 62.3339 43.0441 62.3309 45.7751C62.3339 48.5021 60.1279 50.7091 57.3939 50.7161Z" fill="#f2b11a"/>
<path d="M46.474 41.551C49.161 43.365 50.108 44.945 50.287 45.277C51.739 47.425 50.589 50.889 46.811 50.881H46.744H46.742H29.272C25.838 50.888 25.845 46.336 29.272 46.31H43.613V44.726H29.272C26.66 44.746 25.088 46.542 25.088 48.61C25.088 48.61 25.131 50.079 26.06 50.843L3.25698 50.798C1.85398 50.8 0.714984 49.471 0.708984 47.825C0.708984 46.181 2.27598 45.007 3.25098 44.846L35.014 39.69C35.015 39.69 42.165 38.636 46.474 41.551Z" fill="#f2b11a"/>
<path d="M74.438 20.507C71.621 19.909 68.849 21.704 68.25 24.518C67.652 27.335 69.446 30.105 72.265 30.703C75.078 31.306 77.851 29.509 78.451 26.692C79.05 23.878 77.253 21.107 74.438 20.507Z" fill="#f2b11a"/>
<path d="M98.141 71.6129L89.629 63.8159L90.107 50.2429C90.132 49.0899 90.192 48.0759 89.926 47.1439C89.895 46.8879 84.882 32.8619 84.882 32.8619C84.15 31.1209 81.994 30.3549 80.932 30.3579C79.609 30.3649 77.903 31.0019 77.042 31.8619C76.138 32.6779 75.255 34.4649 75.734 36.3759L77.832 43.7879L70.376 42.1949C68.236 41.7089 67.44 43.5249 67.44 43.5249L62.146 53.5959H0.708984V55.8969H15.503L27.804 62.3639L14.824 68.8209C13.838 67.5599 12.325 66.7359 10.607 66.7329C7.62699 66.7389 5.21998 69.1459 5.22498 72.1249C5.22098 75.0949 7.62699 77.5009 10.607 77.5079C13.571 77.5009 15.976 75.0949 15.992 72.1249C15.99 71.6449 15.906 71.1889 15.787 70.7469L30.154 63.6009L43.393 70.5619C43.243 71.0579 43.139 71.5759 43.14 72.1239C43.134 75.0939 45.54 77.4999 48.521 77.5069C51.486 77.4999 53.893 75.0939 53.906 72.1239C53.892 69.1449 51.486 66.7379 48.521 66.7319C46.864 66.7349 45.404 67.4959 44.418 68.6689L32.529 62.4169L45.628 55.9019L45.626 55.8959H63.548L68.198 47.0329C68.5 47.2559 68.849 47.4249 69.242 47.5089L79.507 49.7009L79.676 50.2959C79.676 50.2959 72.493 55.3789 71.449 56.1069C70.051 57.0859 69.071 58.2369 69.01 60.3309L69.037 74.3619C69.037 78.2919 74.966 78.3799 74.966 74.3899L75.004 61.2389L82.847 56.7799C82.847 56.7799 82.857 64.7809 82.857 65.2819C82.857 66.3299 83.821 67.1229 84.139 67.3449L93.88 76.1759C97.511 79.1249 101.232 74.2969 98.141 71.6129ZM10.607 74.0609C9.53299 74.0589 8.66598 73.1909 8.66798 72.1229C8.66598 71.0489 9.53299 70.1829 10.607 70.1799C11.675 70.1829 12.542 71.0489 12.547 72.1229C12.542 73.1899 11.675 74.0589 10.607 74.0609ZM48.52 70.1789C49.59 70.1819 50.456 71.0479 50.462 72.1219C50.456 73.1899 49.59 74.0589 48.52 74.0599C47.445 74.0579 46.579 73.1899 46.582 72.1219C46.579 71.0479 47.445 70.1819 48.52 70.1789ZM30.179 61.1839L20.124 55.8979H40.807L30.179 61.1839Z" fill="#f2b11a"/>
</svg>
