<svg width="99" height="63" viewBox="0 0 99 63" fill="none" xmlns="http://www.w3.org/2000/svg">
<path d="M56.8201 33.3677C54.1263 33.3602 51.9423 30.9943 51.9285 28.071C51.9433 25.1433 54.1273 22.7774 56.8201 22.771C59.5267 22.7774 61.7107 25.1433 61.7077 28.071C61.7107 30.9943 59.5267 33.3602 56.8201 33.3677Z" fill="#F2B11A"/>
<path d="M46.0093 23.5426C48.6694 25.4872 49.6069 27.181 49.7841 27.5369C51.2216 29.8396 50.0831 33.553 46.3429 33.5444H46.2766H46.2746H28.9793C25.5796 33.5519 25.5866 28.6721 28.9793 28.6443H43.1769V26.9462H28.9793C26.3934 26.9677 24.8371 28.893 24.8371 31.1099C24.8371 31.1099 24.8797 32.6846 25.7994 33.5036L3.22442 33.4554C1.83545 33.4576 0.707844 32.0329 0.701904 30.2684C0.701904 28.506 2.25323 27.2475 3.21848 27.0749L34.6639 21.5476C34.6649 21.5476 41.7434 20.4177 46.0093 23.5426Z" fill="#F2B11A"/>
<path d="M73.6935 0.983539C70.9047 0.342483 68.1604 2.26672 67.5674 5.28333C66.9754 8.30315 68.7515 11.2726 71.5423 11.9136C74.3271 12.5601 77.0724 10.6337 77.6664 7.61386C78.2594 4.59725 76.4804 1.62674 73.6935 0.983539Z" fill="#F2B11A"/>
<path d="M97.1596 55.7691L88.7327 47.4107L89.2059 32.8604C89.2307 31.6244 89.2901 30.5374 89.0267 29.5383C88.9961 29.2639 84.0332 14.228 84.0332 14.228C83.3085 12.3616 81.1741 11.5405 80.1227 11.5437C78.8129 11.5512 77.124 12.2341 76.2716 13.156C75.3766 14.0308 74.5025 15.9464 74.9767 17.995L77.0537 25.9407L69.6722 24.233C67.5536 23.712 66.7656 25.6587 66.7656 25.6587L61.5245 36.4549H0.701904V38.9215H15.348L27.526 45.8541L14.6758 52.7761C13.6996 51.4243 12.2018 50.5409 10.5009 50.5377C7.55073 50.5442 5.16779 53.1245 5.17274 56.3179C5.16878 59.5018 7.55073 62.081 10.5009 62.0885C13.4353 62.081 15.8162 59.5018 15.8321 56.3179C15.8301 55.8034 15.7469 55.3146 15.6291 54.8407L29.8525 47.1802L42.9591 54.6424C42.8106 55.1741 42.7076 55.7294 42.7086 56.3169C42.7027 59.5007 45.0846 62.0799 48.0358 62.0874C50.9711 62.0799 53.3541 59.5007 53.3669 56.3169C53.3531 53.1234 50.9711 50.5431 48.0358 50.5366C46.3954 50.5399 44.95 51.3557 43.9738 52.6131L32.2037 45.911L45.1717 38.9269L45.1697 38.9205H62.9125L67.516 29.4193C67.815 29.6584 68.1605 29.8395 68.5496 29.9296L78.7119 32.2794L78.8792 32.9172C78.8792 32.9172 71.7681 38.3662 70.7345 39.1466C69.3505 40.1961 68.3803 41.43 68.3199 43.6748L68.3466 58.716C68.3466 62.929 74.2163 63.0233 74.2163 58.746L74.254 44.6481L82.0185 39.8681C82.0185 39.8681 82.0284 48.4452 82.0284 48.9822C82.0284 50.1057 82.9828 50.9558 83.2976 51.1938L92.9412 60.6606C96.5359 63.8219 100.22 58.6463 97.1596 55.7691ZM10.5009 58.3933C9.43767 58.3912 8.57933 57.4607 8.58131 56.3158C8.57933 55.1645 9.43767 54.2361 10.5009 54.2329C11.5583 54.2361 12.4166 55.1645 12.4215 56.3158C12.4166 57.4596 11.5583 58.3912 10.5009 58.3933ZM48.0348 54.2318C49.0941 54.235 49.9514 55.1634 49.9574 56.3147C49.9514 57.4596 49.0941 58.3912 48.0348 58.3923C46.9706 58.3901 46.1132 57.4596 46.1162 56.3147C46.1132 55.1634 46.9706 54.235 48.0348 54.2318ZM29.8772 44.5892L19.9228 38.9226H40.3989L29.8772 44.5892Z" fill="#F2B11A"/>
</svg>
