<svg width="68" height="90" viewBox="0 0 68 90" fill="none" xmlns="http://www.w3.org/2000/svg">
<path d="M29.8341 16.782C34.4683 16.782 38.2251 13.0252 38.2251 8.391C38.2251 3.75678 34.4683 0 29.8341 0C25.1999 0 21.4431 3.75678 21.4431 8.391C21.4431 13.0252 25.1999 16.782 29.8341 16.782Z" fill="#F2B11A"/>
<path d="M67.146 70.8579L62.87 46.6069C62.554 44.6119 61.092 43.0159 59.175 42.4919C59.09 42.4679 59.009 42.4329 58.922 42.4129C58.761 42.3789 58.591 42.3689 58.425 42.3499C58.243 42.3279 58.065 42.2969 57.878 42.2949C57.859 42.2949 57.843 42.2889 57.824 42.2889L39.027 42.2859L37.664 34.5529H52.288C54.025 34.5529 55.435 33.1439 55.435 31.4069C55.435 29.6699 54.025 28.2609 52.288 28.2609H36.556C36.555 28.2609 36.555 28.2609 36.555 28.2609L35.76 23.7529C35.133 20.2019 31.747 17.8309 28.197 18.4559C24.646 19.0819 22.274 22.4689 22.901 26.0199L26.627 47.1459C27.181 50.2939 29.909 52.5039 32.994 52.5319C33.036 52.5329 33.076 52.5439 33.119 52.5439H53.506L57.05 72.6399C57.542 75.4279 60.2 77.2909 62.991 76.7989C65.777 76.3079 67.639 73.6469 67.146 70.8579Z" fill="#F2B11A"/>
<path d="M52.5229 75.2341C51.8089 75.2341 51.1699 75.546 50.7239 76.034L50.7169 76.029L50.2499 76.5401C50.2479 76.5431 49.7319 77.1101 49.4629 77.3871C44.6109 82.3641 38.1219 85.1061 31.1909 85.1061C17.1189 85.1061 5.66888 73.659 5.66888 59.584C5.66988 50.649 10.4519 42.247 18.1479 37.653L18.5619 37.412L18.5489 37.389C19.3109 36.975 19.8349 36.1761 19.8349 35.2471C19.8349 33.8951 18.7379 32.8 17.3879 32.8C16.8549 32.8 16.3669 32.975 15.9649 33.265C15.7439 33.393 15.4699 33.553 15.2929 33.663C6.20288 39.257 0.775879 48.948 0.775879 59.584C0.773879 76.356 14.4199 90 31.1909 90C39.4819 90 47.2349 86.714 53.0239 80.743C53.3209 80.437 53.8929 79.806 53.8929 79.806L54.2489 79.4151C54.2539 79.4091 54.2579 79.4041 54.2639 79.3981L54.3679 79.284L54.3629 79.278C54.7359 78.849 54.9699 78.295 54.9699 77.68C54.9709 76.329 53.8739 75.2341 52.5229 75.2341Z" fill="#F2B11A"/>
</svg>
