<svg width="136" height="250" viewBox="0 0 136 250" fill="none" xmlns="http://www.w3.org/2000/svg">
<g clip-path="url(#clip0)">
<path d="M113.523 25.4075C115.131 13.0888 106.447 1.79924 94.128 0.191623C81.8087 -1.416 70.5188 7.26709 68.9112 19.5858C67.3037 31.9046 75.9872 43.1941 88.3065 44.8017C100.626 46.4093 111.916 37.7263 113.523 25.4075Z" fill="#f2b11a"/>
<path d="M65.5891 89.6461C65.4181 89.3541 65.2341 89.073 65.0671 88.778C59.0091 77.983 57.9801 68.1621 57.8171 64.4401L57.8131 64.322C57.7011 58.731 62.0971 54.157 67.6091 54.048L67.8101 54.0461C73.2121 54.0461 77.6971 58.4441 77.8021 63.8511C77.8071 63.8821 77.8151 64.0181 77.8291 64.2181C77.8601 64.6081 77.9271 65.264 78.0551 66.125C78.3001 67.727 78.8031 70.238 79.8231 73.104C80.5831 75.225 81.5141 77.2011 82.5791 79.0631C82.9391 75.3271 83.3191 71.786 83.6231 68.576C85.4941 58.388 80.5801 46.906 71.8771 45.633C63.1711 44.359 51.3151 50.197 47.7521 65.265C45.6311 74.48 44.4261 82.208 44.1541 89.867C47.8151 89.116 51.6041 88.7201 55.4831 88.7201C58.9351 88.7181 62.3091 89.0481 65.5891 89.6461Z" fill="#f2b11a"/>
<path d="M123.246 113.848C123.066 112.971 122.787 112.137 122.439 111.343C120.896 114.918 117.356 117.37 113.277 117.37C112.911 117.37 112.54 117.349 112.167 117.307C109.225 116.985 106.381 116.523 103.638 115.925C108.774 124.407 111.734 134.348 111.734 144.967C111.734 151.925 110.455 158.588 108.134 164.745L111.087 179.186C112.297 185.105 117.504 189.186 123.319 189.186C124.149 189.186 124.992 189.102 125.837 188.929C132.601 187.548 136.962 180.945 135.58 174.179L123.246 113.848Z" fill="#f2b11a"/>
<path d="M102.088 113.503C105.305 114.301 108.733 114.919 112.388 115.319C112.688 115.352 112.985 115.369 113.279 115.369C117.302 115.369 120.765 112.34 121.218 108.247C121.705 103.856 118.537 99.901 114.146 99.417C104.083 98.295 97.0039 95.403 91.7809 91.886C83.9879 86.619 80.0509 79.663 77.9399 73.773C76.8989 70.848 76.3549 68.233 76.0799 66.421C75.9429 65.514 75.8729 64.808 75.8369 64.365C75.8209 64.144 75.8109 63.989 75.8069 63.905L75.8049 63.888C75.7179 59.47 72.0679 55.959 67.6499 56.046C63.2339 56.133 59.7239 59.784 59.8099 64.202C59.8549 64.967 60.0459 75.741 66.8089 87.795C67.2589 88.592 67.7449 89.395 68.2569 90.198C82.2519 93.462 94.2619 101.949 102.088 113.503Z" fill="#f2b11a"/>
<path d="M28.829 54.0531C28.24 51.8651 26.264 50.3521 24 50.3521H5C2.238 50.3521 0 52.5901 0 55.3521C0 58.1131 2.238 60.3521 5 60.3521V60.35H20.167L29.51 95.099C32.473 93.549 35.584 92.245 38.826 91.238L28.829 54.0531Z" fill="#f2b11a"/>
<path d="M55.4839 90.719C25.5229 90.719 1.23389 115.007 1.23389 144.969C1.23389 174.931 25.5229 199.219 55.4839 199.219C85.4459 199.219 109.734 174.931 109.734 144.969C109.734 115.007 85.4459 90.719 55.4839 90.719ZM67.5469 136.08C66.6519 134.869 65.5839 133.801 64.3739 132.906L78.1589 109.029C83.5059 112.41 88.0439 116.947 91.4239 122.294L67.5469 136.08ZM75.2749 107.36L61.4929 131.23C60.1379 130.636 58.6799 130.237 57.1509 130.067V102.511C63.6789 102.763 69.8259 104.486 75.2749 107.36ZM53.8169 130.067C52.2879 130.237 50.8309 130.636 49.4759 131.23L35.6939 107.359C41.1429 104.486 47.2899 102.763 53.8169 102.511V130.067V130.067ZM40.5819 143.302H13.0259C13.2779 136.776 15.0009 130.629 17.8739 125.18L41.7449 138.961C41.1509 140.316 40.7509 141.774 40.5819 143.302ZM40.5819 146.636C40.7509 148.164 41.1509 149.622 41.7449 150.977L17.8739 164.759C15.0009 159.31 13.2789 153.162 13.0259 146.636H40.5819V146.636ZM53.8169 159.871V187.427C47.2909 187.175 41.1449 185.452 35.6959 182.58L49.4769 158.709C50.8319 159.302 52.2889 159.702 53.8169 159.871ZM57.1509 159.871C58.6799 159.702 60.1369 159.302 61.4919 158.709L75.2729 182.579C69.8239 185.452 63.6769 187.175 57.1509 187.427V159.871V159.871ZM70.3869 146.635H97.9429C97.6909 153.162 95.9679 159.309 93.0949 164.758L69.2249 150.977C69.8169 149.621 70.2179 148.164 70.3869 146.635ZM70.3869 143.302C70.2169 141.774 69.8179 140.316 69.2239 138.96L93.0939 125.179C95.9679 130.628 97.6909 136.775 97.9429 143.302H70.3869V143.302ZM32.8109 109.03L46.5959 132.907C45.3849 133.801 44.3159 134.87 43.4219 136.081L19.5459 122.296C22.9259 116.948 27.4639 112.41 32.8109 109.03ZM19.5449 167.643L43.4209 153.858C44.3149 155.07 45.3839 156.138 46.5949 157.033L32.8099 180.909C27.4639 177.528 22.9259 172.99 19.5449 167.643ZM78.1579 180.908L64.3729 157.031C65.5839 156.138 66.6529 155.068 67.5479 153.857L91.4239 167.642C88.0429 172.989 83.5049 177.528 78.1579 180.908Z" fill="#f2b11a"/>
</g>
<defs>
<clipPath id="clip0">
<rect width="135.836" height="249.024" fill="#f2b11a"/>
</clipPath>
</defs>
</svg>
